<mxfile host="Electron" modified="2023-12-19T10:12:41.201Z" agent="Mozilla/5.0 (Windows NT 10.0; Win64; x64) AppleWebKit/537.36 (KHTML, like Gecko) draw.io/22.1.2 Chrome/114.0.5735.289 Electron/25.9.4 Safari/537.36" etag="2Vzm7xuyrG0V4UgnAlCe" version="22.1.2" type="device">
  <diagram id="C5RBs43oDa-KdzZeNtuy" name="Page-1">
    <mxGraphModel dx="685" dy="534" grid="1" gridSize="10" guides="1" tooltips="1" connect="1" arrows="1" fold="1" page="1" pageScale="1" pageWidth="827" pageHeight="1169" math="0" shadow="0">
      <root>
        <mxCell id="WIyWlLk6GJQsqaUBKTNV-0" />
        <mxCell id="WIyWlLk6GJQsqaUBKTNV-1" parent="WIyWlLk6GJQsqaUBKTNV-0" />
        <mxCell id="6jyHARA55lWT-9WRdx3f-3" value="" style="edgeStyle=orthogonalEdgeStyle;rounded=0;orthogonalLoop=1;jettySize=auto;html=1;" parent="WIyWlLk6GJQsqaUBKTNV-1" source="6jyHARA55lWT-9WRdx3f-1" target="6jyHARA55lWT-9WRdx3f-2" edge="1">
          <mxGeometry relative="1" as="geometry" />
        </mxCell>
        <mxCell id="6jyHARA55lWT-9WRdx3f-1" value="START" style="ellipse;whiteSpace=wrap;html=1;aspect=fixed;" parent="WIyWlLk6GJQsqaUBKTNV-1" vertex="1">
          <mxGeometry x="350" width="60" height="60" as="geometry" />
        </mxCell>
        <mxCell id="6jyHARA55lWT-9WRdx3f-5" value="" style="edgeStyle=orthogonalEdgeStyle;rounded=0;orthogonalLoop=1;jettySize=auto;html=1;" parent="WIyWlLk6GJQsqaUBKTNV-1" source="6jyHARA55lWT-9WRdx3f-2" target="6jyHARA55lWT-9WRdx3f-4" edge="1">
          <mxGeometry relative="1" as="geometry" />
        </mxCell>
        <mxCell id="6jyHARA55lWT-9WRdx3f-2" value="&lt;div style=&quot;&quot;&gt;&lt;font color=&quot;#2c2d2e&quot;&gt;Создаем массив строк (Array1)&lt;/font&gt;&lt;/div&gt;&lt;div style=&quot;&quot;&gt;&lt;font color=&quot;#2c2d2e&quot;&gt;Задаем длинну массива Array1 = n&lt;/font&gt;&lt;/div&gt;&lt;div style=&quot;&quot;&gt;&lt;span style=&quot;background-color: initial; color: rgb(44, 45, 46);&quot;&gt;Создаем пустой массив (Array2)&lt;/span&gt;&lt;br&gt;&lt;/div&gt;&lt;div style=&quot;&quot;&gt;Индекс элемента Array1 (i) = 0&lt;span style=&quot;background-color: initial; color: rgb(44, 45, 46);&quot;&gt;&lt;br&gt;&lt;/span&gt;&lt;/div&gt;&lt;div style=&quot;&quot;&gt;&lt;font color=&quot;#2c2d2e&quot;&gt;Размер элемента массива (Size) = 3&lt;/font&gt;&lt;/div&gt;&lt;div style=&quot;&quot;&gt;&lt;br&gt;&lt;/div&gt;&lt;div style=&quot;&quot;&gt;&lt;span style=&quot;background-color: initial; color: rgb(44, 45, 46);&quot;&gt;&lt;br&gt;&lt;/span&gt;&lt;/div&gt;" style="whiteSpace=wrap;html=1;align=center;" parent="WIyWlLk6GJQsqaUBKTNV-1" vertex="1">
          <mxGeometry x="240" y="90" width="280" height="110" as="geometry" />
        </mxCell>
        <mxCell id="6jyHARA55lWT-9WRdx3f-7" value="" style="edgeStyle=orthogonalEdgeStyle;rounded=0;orthogonalLoop=1;jettySize=auto;html=1;" parent="WIyWlLk6GJQsqaUBKTNV-1" source="6jyHARA55lWT-9WRdx3f-4" edge="1">
          <mxGeometry relative="1" as="geometry">
            <mxPoint x="380" y="400" as="targetPoint" />
          </mxGeometry>
        </mxCell>
        <mxCell id="6jyHARA55lWT-9WRdx3f-4" value="&lt;br&gt;Array1[i] &amp;lt; = Size" style="rhombus;whiteSpace=wrap;html=1;" parent="WIyWlLk6GJQsqaUBKTNV-1" vertex="1">
          <mxGeometry x="260" y="228" width="240" height="120" as="geometry" />
        </mxCell>
        <mxCell id="6jyHARA55lWT-9WRdx3f-19" style="edgeStyle=orthogonalEdgeStyle;rounded=0;orthogonalLoop=1;jettySize=auto;html=1;entryX=0.995;entryY=0.606;entryDx=0;entryDy=0;entryPerimeter=0;exitX=1;exitY=0.5;exitDx=0;exitDy=0;" parent="WIyWlLk6GJQsqaUBKTNV-1" target="6jyHARA55lWT-9WRdx3f-8" edge="1" source="6jyHARA55lWT-9WRdx3f-4">
          <mxGeometry relative="1" as="geometry">
            <mxPoint x="470" y="520" as="targetPoint" />
            <Array as="points">
              <mxPoint x="720" y="288" />
              <mxPoint x="720" y="689" />
            </Array>
            <mxPoint x="470" y="520" as="sourcePoint" />
          </mxGeometry>
        </mxCell>
        <mxCell id="-6B_QJjs70wv6PLbtT3n-5" style="edgeStyle=orthogonalEdgeStyle;rounded=0;orthogonalLoop=1;jettySize=auto;html=1;exitX=0.5;exitY=1;exitDx=0;exitDy=0;entryX=0.5;entryY=0;entryDx=0;entryDy=0;" edge="1" parent="WIyWlLk6GJQsqaUBKTNV-1" target="6jyHARA55lWT-9WRdx3f-14">
          <mxGeometry relative="1" as="geometry">
            <mxPoint x="380" y="480" as="sourcePoint" />
          </mxGeometry>
        </mxCell>
        <mxCell id="-6B_QJjs70wv6PLbtT3n-10" value="" style="edgeStyle=orthogonalEdgeStyle;rounded=0;orthogonalLoop=1;jettySize=auto;html=1;" edge="1" parent="WIyWlLk6GJQsqaUBKTNV-1" target="-6B_QJjs70wv6PLbtT3n-9">
          <mxGeometry relative="1" as="geometry">
            <mxPoint x="480" y="440" as="sourcePoint" />
          </mxGeometry>
        </mxCell>
        <mxCell id="6jyHARA55lWT-9WRdx3f-13" style="edgeStyle=orthogonalEdgeStyle;rounded=0;orthogonalLoop=1;jettySize=auto;html=1;exitX=0;exitY=0.5;exitDx=0;exitDy=0;entryX=0;entryY=0.5;entryDx=0;entryDy=0;" parent="WIyWlLk6GJQsqaUBKTNV-1" source="6jyHARA55lWT-9WRdx3f-8" target="6jyHARA55lWT-9WRdx3f-4" edge="1">
          <mxGeometry relative="1" as="geometry">
            <Array as="points">
              <mxPoint x="220" y="680" />
              <mxPoint x="220" y="288" />
            </Array>
          </mxGeometry>
        </mxCell>
        <mxCell id="6jyHARA55lWT-9WRdx3f-8" value="Array1[i]&amp;nbsp;+ 1" style="rounded=1;whiteSpace=wrap;html=1;" parent="WIyWlLk6GJQsqaUBKTNV-1" vertex="1">
          <mxGeometry x="280" y="640" width="200" height="80" as="geometry" />
        </mxCell>
        <mxCell id="6jyHARA55lWT-9WRdx3f-11" value="Yes" style="text;html=1;align=center;verticalAlign=middle;resizable=0;points=[];autosize=1;strokeColor=none;fillColor=none;" parent="WIyWlLk6GJQsqaUBKTNV-1" vertex="1">
          <mxGeometry x="370" y="348" width="40" height="30" as="geometry" />
        </mxCell>
        <mxCell id="-6B_QJjs70wv6PLbtT3n-6" style="edgeStyle=orthogonalEdgeStyle;rounded=0;orthogonalLoop=1;jettySize=auto;html=1;exitX=0.5;exitY=1;exitDx=0;exitDy=0;entryX=0.5;entryY=0;entryDx=0;entryDy=0;" edge="1" parent="WIyWlLk6GJQsqaUBKTNV-1" source="6jyHARA55lWT-9WRdx3f-14" target="6jyHARA55lWT-9WRdx3f-8">
          <mxGeometry relative="1" as="geometry" />
        </mxCell>
        <mxCell id="6jyHARA55lWT-9WRdx3f-14" value="Array1[i] + Array2" style="rounded=1;whiteSpace=wrap;html=1;" parent="WIyWlLk6GJQsqaUBKTNV-1" vertex="1">
          <mxGeometry x="280" y="520" width="200" height="80" as="geometry" />
        </mxCell>
        <mxCell id="-6B_QJjs70wv6PLbtT3n-0" value="No" style="text;html=1;align=center;verticalAlign=middle;resizable=0;points=[];autosize=1;strokeColor=none;fillColor=none;" vertex="1" parent="WIyWlLk6GJQsqaUBKTNV-1">
          <mxGeometry x="480" y="280" width="40" height="30" as="geometry" />
        </mxCell>
        <mxCell id="-6B_QJjs70wv6PLbtT3n-3" style="edgeStyle=orthogonalEdgeStyle;rounded=0;orthogonalLoop=1;jettySize=auto;html=1;exitX=0.5;exitY=1;exitDx=0;exitDy=0;" edge="1" parent="WIyWlLk6GJQsqaUBKTNV-1">
          <mxGeometry relative="1" as="geometry">
            <mxPoint x="380" y="480" as="sourcePoint" />
            <mxPoint x="380" y="480" as="targetPoint" />
          </mxGeometry>
        </mxCell>
        <mxCell id="-6B_QJjs70wv6PLbtT3n-8" value="Yes" style="text;html=1;align=center;verticalAlign=middle;resizable=0;points=[];autosize=1;strokeColor=none;fillColor=none;" vertex="1" parent="WIyWlLk6GJQsqaUBKTNV-1">
          <mxGeometry x="370" y="480" width="40" height="30" as="geometry" />
        </mxCell>
        <mxCell id="-6B_QJjs70wv6PLbtT3n-9" value="Print - Array2" style="whiteSpace=wrap;html=1;rounded=1;" vertex="1" parent="WIyWlLk6GJQsqaUBKTNV-1">
          <mxGeometry x="520" y="400" width="190" height="80" as="geometry" />
        </mxCell>
        <mxCell id="-6B_QJjs70wv6PLbtT3n-11" value="No" style="text;html=1;align=center;verticalAlign=middle;resizable=0;points=[];autosize=1;strokeColor=none;fillColor=none;" vertex="1" parent="WIyWlLk6GJQsqaUBKTNV-1">
          <mxGeometry x="470" y="420" width="40" height="30" as="geometry" />
        </mxCell>
        <mxCell id="-6B_QJjs70wv6PLbtT3n-14" value="Array1[i] &amp;lt; =n" style="rhombus;whiteSpace=wrap;html=1;" vertex="1" parent="WIyWlLk6GJQsqaUBKTNV-1">
          <mxGeometry x="280" y="400" width="200" height="80" as="geometry" />
        </mxCell>
      </root>
    </mxGraphModel>
  </diagram>
</mxfile>
